<svg xmlns="http://www.w3.org/2000/svg" width="189.8" height="219.2" viewBox="0 0 189.8 219.2"><path d="M125.9 135.2h11.5v11.34h-11.5zm-84.3-3.6h106.6V99.7H41.6zM94 119.3h43.9a1.8 1.8 0 0 1 0 3.6H94a1.8 1.8 0 1 1 0-3.6zM55.3 96.1h79.2c-.9-23.2-18.5-36-39.6-36s-38.7 12.8-39.6 36zm12.3 39.1h18v11.34h-18zm-15.2 0h11.5v11.34H52.4zm36.8 0h11.5v11.34H89.2zm15.1 0h18v11.34h-18z"/><path d="M0 54.8v109.6l94.9 54.8 94.9-54.8V54.8L94.9 0zm138.1 41.3H150a1.7 1.7 0 0 1 1.8 1.8v35.5a1.7 1.7 0 0 1-1.8 1.8h-9v11.3h9a1.8 1.8 0 0 1 0 3.6H39.8a1.8 1.8 0 0 1 0-3.6h9v-11.3h-9a1.8 1.8 0 0 1-1.8-1.8V97.9a1.7 1.7 0 0 1 1.8-1.8h11.9c.9-25.6 20-39.6 43.2-39.6s42.3 14 43.2 39.6z"/><path fill="#fff" d="M94 122.9h43.9a1.8 1.8 0 0 0 0-3.6H94a1.8 1.8 0 1 0 0 3.6z"/></svg>